<?xml version="1.0" encoding="UTF-8" standalone="no"?>
<!-- Generator: Adobe Illustrator 17.0.1, SVG Export Plug-In . SVG Version: 6.00 Build 0)  -->

<svg
   xmlns:dc="http://purl.org/dc/elements/1.1/"
   xmlns:cc="http://creativecommons.org/ns#"
   xmlns:rdf="http://www.w3.org/1999/02/22-rdf-syntax-ns#"
   xmlns:svg="http://www.w3.org/2000/svg"
   xmlns="http://www.w3.org/2000/svg"
   xmlns:xlink="http://www.w3.org/1999/xlink"
   xmlns:sodipodi="http://sodipodi.sourceforge.net/DTD/sodipodi-0.dtd"
   xmlns:inkscape="http://www.inkscape.org/namespaces/inkscape"
   version="1.1"
   x="0px"
   y="0px"
   width="86px"
   height="86px"
   viewBox="0 0 86 86"
   enable-background="new 0 0 86 86"
   xml:space="preserve"
   id="svg2"
   inkscape:version="0.48.4 r9939"
   sodipodi:docname="SailLevel.svg"><metadata
     id="metadata34"><rdf:RDF><cc:Work
         rdf:about=""><dc:format>image/svg+xml</dc:format><dc:type
           rdf:resource="http://purl.org/dc/dcmitype/StillImage" /><dc:title></dc:title></cc:Work></rdf:RDF></metadata><defs
     id="defs32"><radialGradient
       gradientUnits="userSpaceOnUse"
       gradientTransform="matrix(0,0.9974,-0.9977,0,737.7816,279.5606)"
       r="42.7985"
       cy="696.3833"
       cx="-237.19"
       id="SVGID_1_"><stop
         id="stop7"
         style="stop-color:#7B7B7D"
         offset="0" /><stop
         id="stop9"
         style="stop-color:#DADADA"
         offset="1" /></radialGradient><linearGradient
       y2="84.7037"
       x2="84.6982"
       y1="61.445"
       x1="61.4395"
       gradientUnits="userSpaceOnUse"
       id="SVGID_2_"><stop
         id="stop14"
         style="stop-color:#616360"
         offset="0" /><stop
         id="stop16"
         style="stop-color:#E7E4CD"
         offset="1" /></linearGradient><radialGradient
       inkscape:collect="always"
       xlink:href="#SVGID_1_"
       id="radialGradient3026"
       gradientUnits="userSpaceOnUse"
       gradientTransform="matrix(-0.9974,0,0,-0.9977,-193.5731,737.7691)"
       cx="-237.19"
       cy="696.3833"
       r="42.7985" /></defs><sodipodi:namedview
     pagecolor="#ffffff"
     bordercolor="#666666"
     borderopacity="1"
     objecttolerance="10"
     gridtolerance="10"
     guidetolerance="10"
     inkscape:pageopacity="0"
     inkscape:pageshadow="2"
     inkscape:window-width="1615"
     inkscape:window-height="1026"
     id="namedview30"
     showgrid="false"
     inkscape:zoom="10.976744"
     inkscape:cx="12.497136"
     inkscape:cy="58.257548"
     inkscape:window-x="1985"
     inkscape:window-y="24"
     inkscape:window-maximized="1"
     inkscape:current-layer="svg2" /><g
     id="Layer_2"
     display="none" /><path
     inkscape:connector-curvature="0"
     style="fill:url(#radialGradient3026)"
     id="path11"
     d="m 0.3135,84.2645 c 0,0.786 0.637,1.423 1.423,1.423 0,0 40.629,0 41.264,0 23.576,0 42.687,-19.117 42.687,-42.7 0,-23.582 -19.111,-42.7 -42.687,-42.7 -23.576,0 -42.688,19.118 -42.688,42.7 0,0.636 0.001,41.277 0.001,41.277 z" /><path
     style="opacity:0.5;fill:#84ffff"
     inkscape:connector-curvature="0"
     id="path20"
     d="m 42.999118,80.407065 c -20.629799,0 -37.4150084,-16.781678 -37.4150084,-37.407947 0,-20.624502 16.7852094,-37.4061826 37.4150084,-37.4061826 20.631563,0 37.416772,16.7816806 37.416772,37.4061826 0,20.626269 -16.785209,37.407947 -37.416772,37.407947 z" /><g
     style="opacity:0.43621401"
     id="g24"
     transform="matrix(1.7517686,0,0,1.547999,-36.290674,-34.777209)"><path
       style="opacity:0.8;fill:#ffffff"
       inkscape:connector-curvature="0"
       id="path26"
       d="m 38.633,36.736 c 1.196,-0.811 2.519,-1.275 4.041,-1.396 0.542,-0.044 0.686,-0.562 0.686,-0.808 l 0.014,-6.442 c 0,-0.231 -0.276,-0.643 -0.825,-0.616 -3.616,0.179 -6.804,1.429 -9.438,3.573 -0.326,0.265 -0.25,0.822 -0.002,1.043 l 4.469,4.468 c 0.16,0.242 0.757,0.38 1.055,0.178 z" /><path
       style="opacity:0.8;fill:#ffffff"
       inkscape:connector-curvature="0"
       id="path28"
       d="m 30.506,33.651 c -2.173,2.683 -3.455,5.848 -3.587,9.538 -0.017,0.473 0.461,0.726 0.793,0.726 h 6.327 c 0.17,10e-4 0.708,-0.139 0.737,-0.607 0.094,-1.509 0.574,-2.837 1.348,-4.036 0.385,-0.597 0.154,-0.914 -0.019,-1.063 l -4.596,-4.594 c -0.187,-0.196 -0.744,-0.284 -1.003,0.036 z" /></g><path
     style="opacity:0.33744856;fill:none;stroke:#000000;stroke-width:1.98451661999999995;stroke-linejoin:round;stroke-miterlimit:4;stroke-opacity:1;stroke-dasharray:none"
     d="M 42.15625 25.6875 L 42.15625 42.15625 L 25.6875 42.15625 L 25.6875 43.84375 L 42.15625 43.84375 L 42.15625 60.3125 L 43.84375 60.3125 L 43.84375 43.84375 L 60.3125 43.84375 L 60.3125 42.15625 L 43.84375 42.15625 L 43.84375 25.6875 L 42.15625 25.6875 z "
     id="rect3796" /></svg>